<?xml version="1.0" encoding="UTF-8" standalone="no"?>
<svg
   width="1000"
   height="1000"
   viewBox="0 0 1000 1000"
   version="1.1"
   id="svg3"
   sodipodi:docname="trace.svg"
   inkscape:version="1.3-alpha (fed0f19ef, 2023-04-14)"
   xmlns:inkscape="http://www.inkscape.org/namespaces/inkscape"
   xmlns:sodipodi="http://sodipodi.sourceforge.net/DTD/sodipodi-0.dtd"
   xmlns="http://www.w3.org/2000/svg"
   xmlns:svg="http://www.w3.org/2000/svg">
  <defs
     id="defs3" />
  <sodipodi:namedview
     id="namedview3"
     pagecolor="#505050"
     bordercolor="#eeeeee"
     borderopacity="1"
     inkscape:showpageshadow="0"
     inkscape:pageopacity="0"
     inkscape:pagecheckerboard="0"
     inkscape:deskcolor="#505050"
     inkscape:zoom="0.844"
     inkscape:cx="498.81517"
     inkscape:cy="470.97156"
     inkscape:window-width="1920"
     inkscape:window-height="1017"
     inkscape:window-x="-8"
     inkscape:window-y="-8"
     inkscape:window-maximized="1"
     inkscape:current-layer="svg3" />
  <path
     d="m 503.13034,136.64699 c -18.723,1.754 -57.213,12.259 -67.94,18.543 -2.233,1.308 -8.785,4.02 -14.56,6.026 -11.65,4.047 -49.353,22.385 -52.11,25.345 -0.967,1.038 -4.493,3.548 -7.835,5.578 -3.342,2.03 -5.833,4.083 -5.537,4.563 0.621,1.005 -2.647,2.971 -4.939,2.971 -1.311,0 -1.214,-0.697 0.623,-4.478 1.196,-2.463 1.958,-4.695 1.693,-4.96 -0.785,-0.785 -4.917,0.593 -4.381,1.46 0.67,1.085 -10.725,8.096 -17.68,10.876 -3.116,1.246 -7.473,3.813 -9.682,5.704 -2.209,1.89 -5.284,4.001 -6.834,4.69 -4.515,2.006 -14.386,8.722 -14.94,10.164 -0.279,0.727 -5.228,5.218 -10.998,9.979 -9.84,8.12 -14.962,11.317 -16.179,10.099 -0.92,-0.919 3.123,-4.624 4.478,-4.104 0.742,0.285 1.953,-0.752 2.807,-2.404 0.827,-1.597 2.293,-3.494 3.258,-4.215 0.966,-0.721 2.431,-2.193 3.256,-3.272 3.751,-4.904 -5.066,2.839 -15.025,13.193 -5.788,6.019 -11.822,11.579 -13.408,12.355 -1.585,0.777 -3.374,2.309 -3.975,3.405 -0.6,1.096 -3.342,4.489 -6.092,7.54 -5.837,6.476 -18.49,24.633 -16.415,23.555 0.778,-0.404 0.634,-0.095 -0.319,0.688 -0.954,0.782 -1.442,1.716 -1.084,2.074 0.358,0.358 0.142,0.651 -0.48,0.651 -0.622,0 -1.642,0.954 -2.267,2.121 -0.865,1.616 -0.853,1.947 0.048,1.39 1.787,-1.105 -1.578,4.948 -4.508,8.11 -2.791,3.012 -17.756,32.117 -18.962,36.879 -0.423,1.671 -0.977,2.404 -1.251,1.655 -1.116,-3.052 -7.263,10.589 -14.351,31.845 -2.367,7.097 -2.841,7.911 -2.873,4.932 -0.021,-1.963 0.668,-5.945 1.53,-8.849 0.862,-2.904 1.359,-5.49 1.103,-5.746 -0.444,-0.443 -2.445,5.321 -6.221,17.913 -0.948,3.163 -2.095,5.75 -2.548,5.75 -1.437,0 -3.68,9.365 -6.397,26.699 -1.448,9.24 -3.698,23.326 -5.001,31.301 -1.302,7.975 -2.652,17.06 -3,20.189 -0.461,4.142 -1.091,5.81 -2.318,6.134 -0.927,0.245 10.576,0.497 25.564,0.561 l 27.25,0.116 v 6.479 6.48 l -20.25,0.27 -20.25,0.271 -0.299,6.901 c -0.408,9.419 -0.195,9.803 4.495,8.098 2.092,-0.761 5.538,-1.663 7.658,-2.006 3.642,-0.588 3.821,-0.784 3.25,-3.558 -0.332,-1.614 -0.878,-4.272 -1.213,-5.906 l -0.61,-2.971 13.86,-0.279 13.859,-0.279 v -7 -7 l -13.781,-0.278 -13.78,-0.279 0.591,-5.221 c 3.859,-34.106 10.678,-63.33 19.418,-83.222 2.658,-6.05 5.142,-12.46 5.521,-14.244 0.378,-1.784 1.215,-3.584 1.859,-4 0.645,-0.416 2.453,-3.456 4.018,-6.756 1.566,-3.3 4.378,-8.534 6.25,-11.631 1.872,-3.097 3.404,-6.29 3.404,-7.097 0,-0.806 2.548,-5.247 5.662,-9.869 3.114,-4.622 9.394,-15.455 13.956,-24.074 8.631,-16.308 15.649,-27.867 20.526,-33.807 1.571,-1.913 2.856,-3.919 2.856,-4.458 0,-0.539 1.687,-2.769 3.75,-4.955 2.641,-2.799 1.236,-1.948 -4.75,2.879 l -8.5,6.855 7.5,-7.763 c 4.125,-4.27 12.9,-11.956 19.5,-17.081 6.6,-5.125 12.535,-10.208 13.188,-11.296 0.654,-1.088 3.129,-3.285 5.5,-4.882 5.819,-3.92 7.981,-4.991 4.33,-2.145 -12.066,9.404 -5.133,5.439 9.982,-5.708 3.85,-2.84 9.789,-6.407 13.197,-7.928 3.409,-1.521 6.966,-3.615 7.905,-4.653 2.28,-2.519 0.773,-2.363 -4.102,0.423 -4.349,2.486 -7.5,3.849 -7.5,3.245 0,-0.211 2.813,-2.015 6.25,-4.01 3.438,-1.994 8.201,-5.186 10.586,-7.092 2.384,-1.906 4.687,-3.248 5.116,-2.983 0.429,0.266 1.628,-0.472 2.664,-1.64 1.48,-1.667 1.591,-2.224 0.519,-2.598 -0.751,-0.261 2.399,-1.947 7,-3.747 4.601,-1.799 13.315,-5.379 19.365,-7.955 32.972,-14.041 64.448,-22.66 99.119,-27.141 15.596,-2.016 50.353,-2.285 64.881,-0.503 40.80404,5.005 80.29804,17.918 112.00004,36.619 41.193,24.301 82.7,65.653 113.151,112.729 24.026,37.142 47.116,88.717 49.814,111.266 0.395,3.3 1.794,10.5 3.108,16 2.611,10.921 6.427,32.317 6.427,36.03 0,1.622 -0.684,2.463 -2.25,2.764 -1.237,0.239 12.6,0.394 30.75,0.346 18.15,-0.048 25.758,-0.222 16.907,-0.387 l -16.093,-0.301 -1.724,-12.226 c -0.948,-6.724 -3.067,-18.526 -4.709,-26.226 -1.642,-7.7 -3.849,-18.05 -4.904,-23 -1.055,-4.95 -4.121,-15.3 -6.815,-23 -2.693,-7.7 -5.922,-17.825 -7.175,-22.5 -3.982,-14.854 -21.792,-48.597 -40.114,-76 -17.247,-25.797 -27.003,-38.492 -43.169,-56.174 -33.404,-36.538 -77.724,-66.627 -121.704,-82.624 -29.713,-10.808 -50.197,-14.096 -91.50004,-14.685 -14.85,-0.212 -31.05,-0.006 -36,0.457 m 410.95504,337.283 c -0.265,0.691 -0.357,16.553 -0.205,35.25 l 0.278,33.993 0.236,-34.734 0.236,-34.734 27.25,-0.283 27.25,-0.283 -27.281,-0.233 c -21.153,-0.181 -27.39,0.049 -27.764,1.024 m -83.345,13.446 c 2.436,0.376 2.653,0.851 3.243,7.1 1.069,11.313 0.721,28.551 -0.885,43.838 -3.501,33.339 -8.703,50.817 -24.193,81.277 -17.56,34.533 -33.912,57.571 -59.2,83.408 -47.119,48.142 -95.268,72.67 -162.075,82.565 -24.30104,3.599 -72.15304,6.652 -98.84904,6.305 -13.658,-0.177 -14.935,-0.373 -26.5,-4.065 -12.663,-4.043 -22.418,-6.131 -19.651,-4.205 2.144,1.491 0.602,1.324 -9,-0.977 -24.983,-5.988 -78.914,-25.765 -81.451,-29.87 -0.328,-0.531 -3.848,-2.784 -7.823,-5.006 -3.974,-2.222 -11.051,-6.751 -15.726,-10.064 -4.675,-3.314 -16.375,-11.256 -26,-17.651 -25.731,-17.096 -36.513,-28.7 -61.653,-66.358 -21.719,-32.534 -38.354,-70.973 -45.329,-104.75 l -1.291,-6.25 h -15.318 -15.318 l -0.295,6.75 -0.296,6.75 -1.319,-9 c -2.387,-16.295 -3.16,-18.983 -2.588,-9 3.306,57.664 30.772,119.008 67.2,150.09 5.163,4.405 7.982,7.624 8.824,10.073 3.093,8.997 23.743,33.129 38.81,45.353 8.944,7.257 26.71,17.484 52.073,29.976 25,12.314 45.053,20.57 67.5,27.79 72.997,23.483 143.274,28.777 208.50004,15.709 63.748,-12.772 123.534,-43.425 172.424,-88.402 13.922,-12.808 32.759,-33.414 37.202,-40.698 1.977,-3.24 6.627,-10.841 10.333,-16.891 3.706,-6.05 9.572,-16.85 13.034,-24 6.676,-13.785 15.921,-36.42 15.178,-37.162 -0.244,-0.244 -1.431,1.155 -2.638,3.109 -2.729,4.415 -3.653,4.653 -1.439,0.371 2.45,-4.737 7.093,-25.46 13.291,-59.318 0.604,-3.3 1.374,-7.209 1.711,-8.687 0.586,-2.568 0.419,-2.702 -3.741,-3 l -4.355,-0.313 -0.266,-27.75 -0.266,-27.75 -12.234,0.15 c -6.729,0.082 -11.059,0.331 -9.624,0.553 m 42.14,0.039 c 3.712,0.192 9.788,0.192 13.5,0 3.712,-0.193 0.675,-0.35 -6.75,-0.35 -7.425,0 -10.462,0.157 -6.75,0.35 m 65.054,0.005 c 5.943,0.177 15.393,0.176 21,-0.002 5.608,-0.178 0.746,-0.323 -10.804,-0.322 -11.55,0.001 -16.138,0.147 -10.196,0.324 m -777.96804,13.253 c 0,4.125 0.177,5.813 0.392,3.75 0.216,-2.062 0.216,-5.437 0,-7.5 -0.215,-2.062 -0.392,-0.375 -0.392,3.75 m 19.164,14.794 -5,1.706 v 5.5 5.5 l 9.153,0.286 9.153,0.286 -0.879,-3.786 c -0.484,-2.082 -0.89,-5.473 -0.903,-7.536 -0.023,-3.568 -0.181,-3.748 -3.274,-3.706 -1.787,0.024 -5.5,0.811 -8.25,1.75 m 791.83604,20.206 c 0,4.125 0.177,5.813 0.392,3.75 0.216,-2.062 0.216,-5.437 0,-7.5 -0.215,-2.062 -0.392,-0.375 -0.392,3.75 m -803.73804,37 c 0.887,4.992 6.43,22.319 7.502,23.45 1.544,1.629 1.01,-4.265 -0.746,-8.232 -0.905,-2.045 -2.935,-7.093 -4.512,-11.218 -1.599,-4.184 -2.591,-5.952 -2.244,-4"
     stroke="none"
     fill="#78ba52"
     fill-rule="evenodd"
     id="path1"
     sodipodi:nodetypes="cscsscscsccccccccccccccsccssccscccssccsccccccccccsccccccccccccccccsssccsccccscccccccsccccccccsccscscscccssccccccccccccccccccccscccccsccsccccccccccccccsscscsccscccccccccsccssccccccccccccccccccccsccc"
     style="fill:#49c52d;fill-opacity:1" />
  <path
     d="m 84.629335,440.97399 c -11.116,2.502 -19.955,8.987 -24.804,18.199 -2.114,4.017 -2.632,6.376 -2.634,12 -0.002,8.593 2.584,14.143 8.63,18.523 6.229,4.513 12.695,6.034 29.334,6.901 21.998005,1.147 27.475005,4.212 27.475005,15.378 0,6.116 -3.185,10.548 -10,13.917 -15.278005,7.554 -33.023005,4.951 -45.507005,-6.675 l -4.759,-4.432 -5.117,4.902 -5.117,4.903 5.797,5.416 c 10.799,10.088 26.018,15.477 40.203,14.236 17.953005,-1.571 30.640005,-8.423 36.743005,-19.846 3.185,-5.959 3.199,-20.277 0.026,-26.318 -5.369,-10.22 -14.485,-13.962 -37.294005,-15.31 -20.394,-1.205 -25.905,-4.121 -24.705,-13.069 2.161,-16.111 28.035005,-20.334 45.909005,-7.493 l 5.233,3.76 4.294,-4.743 c 2.362,-2.609 4.294,-5.129 4.294,-5.601 0,-1.397 -8.854,-7.739 -14.378,-10.298 -9.953,-4.613 -24.244005,-6.462 -33.623005,-4.35 m 529.000995,2.29 c 0,0.325 2.475,3.573 5.5,7.218 l 5.5,6.626 v 42.828 42.828 l 6.75,-0.295 6.75,-0.296 0.5,-33.866 0.5,-33.866 28.404,34.116 28.405,34.116 h 6.845 6.846 v -50 -50 h -6.988 -6.988 l -0.262,38.085 -0.262,38.085 -31.968,-38.085 -31.969,-38.085 h -8.781 c -4.83,0 -8.782,0.266 -8.782,0.591 m -343.42,28.488 c -7.384,1.112 -17.096,5.586 -22.265,10.256 -10.726,9.689 -13.839,26.697 -7.498,40.965 6.498,14.621 25.871,23.792 43.993,20.825 6.472,-1.06 16.295,-5.005 19.355,-7.774 1.612,-1.459 1.496,-1.893 -1.864,-6.954 -1.972,-2.968 -3.788,-5.397 -4.038,-5.397 -0.25,0 -1.794,0.954 -3.431,2.12 -9.594,6.831 -26.855,6.189 -35.405,-1.318 -5.135,-4.509 -7.431,-9.629 -7.405,-16.512 0.038,-10.01 5.693,-18.284 14.642,-21.424 6.242,-2.19 18.933,-1.678 24.836,1.003 l 5,2.27 4.25,-4.666 c 2.337,-2.567 4.25,-4.99 4.25,-5.386 0,-1.246 -7.278,-4.846 -13,-6.43 -7.656,-2.12 -14.485,-2.623 -21.42,-1.578 m 497.92,-0.085 c -16.569,2.596 -29.183,12.78 -32.558,26.288 -1.891,7.564 -0.781,19.216 2.428,25.502 8.721,17.081 30.906,25.128 51.13,18.546 10.869,-3.537 18.707,-10.343 23.41,-20.33 2.189,-4.648 2.59,-6.897 2.59,-14.521 0,-8.185 -0.306,-9.643 -3.3,-15.724 -7.061,-14.344 -25.386,-22.63 -43.7,-19.761 m -607.5,36.522 v 34.515 l 28.25,-0.265 28.25,-0.266 0.295,-6.73 0.295,-6.731 -21.795,-0.269 -21.795,-0.27 v -5.5 -5.5 l 5,-1.706 c 3.448,-1.177 8.337,-1.72 15.75,-1.75 l 10.75,-0.044 v -7.137 -7.138 l -11.75,0.501 c -7.512,0.32 -13.118,1.079 -15.544,2.104 -4.669,1.975 -4.916,1.541 -4.505,-7.929 l 0.299,-6.901 20.25,-0.271 20.25,-0.27 v -6.48 -6.479 h -27 -27 v 34.516 m 170,-0.016 v 34.5 h 6.5 6.5 v -12.391 -12.392 l 3.934,-1.574 c 2.163,-0.865 6.776,-1.86 10.25,-2.209 l 6.316,-0.636 5.884,9.684 c 9.965,16.399 12.029,18.078 23.539,19.147 l 7.077,0.658 v -7.643 -7.644 l -4.25,-0.004 c -5.609,-0.005 -9.797,-2.694 -13.177,-8.462 -1.512,-2.58 -2.597,-4.82 -2.411,-4.978 0.186,-0.158 2.023,-1.073 4.082,-2.033 11.661,-5.436 14.934,-22.341 6.137,-31.707 -5.953,-6.339 -8.212,-6.77 -35.631,-6.794 l -24.75,-0.022 v 34.5 m 97.237,-0.25 0.263,34.25 28.25,0.266 28.25,0.265 v -7.015 -7.016 h -21.5 -21.5 v -5.961 -5.962 l 5.182,-1.538 c 3.201,-0.951 9.124,-1.539 15.5,-1.539 h 10.318 v -7.153 -7.153 l -11.25,0.606 c -6.187,0.333 -13.163,1.282 -15.5,2.109 l -4.25,1.502 v -8.455 -8.456 h 20.5 20.5 v -6.5 -6.5 h -27.513 -27.513 l 0.263,34.25 m 72.763,-27.75 v 6.5 h 12.5 12.5 v 28 28 h 6.5 6.5 v -28 -28 h 13 13 v -6.5 -6.5 h -32 -32 v 6.5 m 327,0 v 6.5 h 12.484 12.484 l 0.266,27.75 0.266,27.75 6.75,0.296 6.75,0.295 v -28.045 -28.046 h 13 13 v -6.5 -6.5 h -32.5 -32.5 v 6.5 m 87,28 v 34.5 h 28 28 v -7 -7 h -21.5 -21.5 v -5.474 c 0,-5.152 0.192,-5.578 3.25,-7.221 2.466,-1.325 6.326,-1.838 16,-2.126 l 12.75,-0.38 v -7.052 -7.052 l -11.902,0.598 c -7.203,0.362 -13.372,1.212 -15.622,2.153 -2.046,0.855 -3.89,1.554 -4.098,1.554 -0.208,0 -0.378,-3.825 -0.378,-8.5 v -8.5 h 20.5 20.5 v -6.5 -6.5 h -27 -27 v 34.5 m -146.703,-22.451 c -12.063,2.383 -19.253,10.581 -19.253,21.951 0,12.935 8.659,21.288 23.514,22.684 17.142,1.611 31.085,-10.677 29.041,-25.593 -1.353,-9.873 -8.32,-16.694 -19.398,-18.992 -5.948,-1.233 -7.876,-1.24 -13.904,-0.05 m -424.297,9.387 c 0,4.71 0.421,8.564 0.935,8.564 0.514,0 2.202,-0.506 3.75,-1.124 1.548,-0.619 9.052,-1.418 16.675,-1.777 12.916,-0.608 13.989,-0.811 15.75,-2.987 2.397,-2.96 2.392,-5.27 -0.02,-8.251 -1.856,-2.295 -2.4,-2.37 -19.5,-2.675 l -17.59,-0.315 v 8.565"
     stroke="none"
     fill="#090909"
     fill-rule="evenodd"
     id="path2"
     style="stroke:#7cec51;stroke-opacity:1"
     sodipodi:nodetypes="cccccscscccccccccccsscccccccccccccccccccccccscccscccscccccccsccccccsscccccccccccccccccccccccccccccccccccccccccccssccccccccccccccccscccccccccccccccccccccccccccccccccccccccccccccccccccccccccssccccscsscccccccccssscccsccccccc" />
</svg>
